<svg width="16" height="16" viewBox="0 0 16 16" fill="none" xmlns="http://www.w3.org/2000/svg">
<g clip-path="url(#clip0_260_2917)">
<path d="M4.32605 6.20837L1.11365 9.42004C-0.371216 10.9047 -0.371216 13.3202 1.11365 14.8048L1.19385 14.885C1.91321 15.604 2.86951 16.0001 3.88684 16.0001C4.90417 16.0001 5.8606 15.604 6.57983 14.885L9.67078 11.7948C9.44434 11.8275 9.21411 11.8444 8.9812 11.8444C8.34045 11.8444 7.71924 11.7181 7.14575 11.4777L5.19885 13.4241C4.84839 13.7744 4.38245 13.9674 3.88684 13.9674C3.39136 13.9674 2.92542 13.7745 2.57495 13.4242C2.22498 13.0743 2.03223 12.6085 2.03223 12.1124C2.03223 11.6165 2.22498 11.1505 2.57483 10.8007L5.70703 7.66931C6.0575 7.31885 6.52344 7.12598 7.01904 7.12598C7.49829 7.12598 7.94946 7.30676 8.29565 7.6355C8.30823 7.64575 8.32031 7.65662 8.33203 7.66833C8.50549 7.84167 8.73596 7.93713 8.9812 7.93713C9.22632 7.93713 9.45691 7.84167 9.63025 7.66833L10.3315 6.96729C10.1788 6.72241 9.99854 6.49475 9.79224 6.28857L9.71216 6.2085C8.9928 5.48926 8.03638 5.09326 7.01917 5.09326C6.00183 5.09326 5.04541 5.48926 4.32605 6.20837Z" fill="#00F6D2"/>
<path d="M14.8867 6.58008C15.6049 5.8623 16.0002 4.90613 16.0002 3.8877C16.0002 2.86938 15.6047 1.91321 14.8867 1.19531L14.8066 1.11523C14.0873 0.396118 13.1309 0 12.1135 0C11.0963 0 10.1399 0.396118 9.42053 1.11523L6.32959 4.20532C6.55603 4.17261 6.78638 4.15576 7.01929 4.15576C7.65991 4.15576 8.28113 4.2821 8.85461 4.52246L10.8015 2.57605C11.152 2.22571 11.6179 2.03271 12.1135 2.03271C12.6091 2.03271 13.0751 2.22559 13.4255 2.57605C13.7755 2.9259 13.9681 3.39172 13.9681 3.8877C13.9681 4.38379 13.7755 4.84961 13.4255 5.19934L10.2933 8.33081C9.94287 8.68127 9.47693 8.87415 8.98132 8.87415C8.5022 8.87415 8.05103 8.69336 7.70483 8.36462C7.69226 8.35437 7.68005 8.34351 7.66833 8.33179C7.495 8.15845 7.2644 8.06299 7.01929 8.06299C6.77405 8.06299 6.54358 8.15845 6.37024 8.33179L5.66895 9.03296C5.82153 9.27771 6.00183 9.50525 6.20813 9.71155L6.28833 9.79175C7.00769 10.5109 7.96399 10.9069 8.98132 10.9069C9.99866 10.9069 10.9551 10.5109 11.6743 9.79175L14.8867 6.58008Z" fill="#00F6D2"/>
</g>
<defs>
<clipPath id="clip0_260_2917">
<rect width="16" height="16" fill="white"/>
</clipPath>
</defs>
</svg>
