<svg xmlns="http://www.w3.org/2000/svg" width="26" height="26" viewBox="0 0 26 26">
    <g fill="none" fill-rule="evenodd">
        <g fill-rule="nonzero">
            <g>
                <g>
                    <g>
                        <path fill="#FFF" d="M23.83 8.378h-2.348V6.151h2.347c.615 0 1.114.498 1.114 1.114 0 .615-.498 1.113-1.114 1.113zM23.83 13.585h-2.348v-2.227h2.347c.615 0 1.114.498 1.114 1.113 0 .616-.498 1.114-1.114 1.114zM23.83 18.793h-2.348v-2.228h2.347c.615 0 1.114.498 1.114 1.114 0 .615-.498 1.114-1.114 1.114zM1.17 8.378h2.347V6.151H1.171c-.615 0-1.114.498-1.114 1.114 0 .615.498 1.113 1.114 1.113zM1.17 13.585h2.347v-2.227H1.171c-.615 0-1.114.498-1.114 1.113 0 .616.498 1.114 1.114 1.114zM1.17 18.793h2.347v-2.228H1.171c-.615 0-1.114.498-1.114 1.114 0 .615.498 1.114 1.114 1.114z" transform="translate(-686.000000, -584.000000) translate(654.000000, 552.000000) translate(20.000000, 20.000000) translate(12.500000, 12.500000)"/>
                        <g fill="#FFF">
                            <path d="M4.903 1.142V3.49H2.675V1.142c0-.615.499-1.114 1.114-1.114.615 0 1.114.5 1.114 1.114zM10.11 1.142V3.49H7.882V1.142c0-.615.499-1.114 1.114-1.114.615 0 1.114.5 1.114 1.114zM15.317 1.142V3.49H13.09V1.142c0-.615.5-1.114 1.114-1.114.615 0 1.114.5 1.114 1.114zM4.888 23.8v-2.346H2.66v2.347c0 .615.498 1.114 1.113 1.114.616 0 1.115-.499 1.115-1.114zM10.095 23.8v-2.346H7.867v2.347c0 .615.499 1.114 1.114 1.114.615 0 1.114-.499 1.114-1.114zM15.317 23.8v-2.346H13.09v2.347c0 .615.5 1.114 1.114 1.114.615 0 1.114-.499 1.114-1.114z" transform="translate(-686.000000, -584.000000) translate(654.000000, 552.000000) translate(20.000000, 20.000000) translate(12.500000, 12.500000) translate(3.503788, 0.000000)"/>
                            <path d="M16.27 21.454H1.723c-.944 0-1.708-.765-1.708-1.708V5.197c0-.943.764-1.708 1.708-1.708H16.27c.943 0 1.708.765 1.708 1.708v14.55c0 .942-.765 1.707-1.708 1.707z" transform="translate(-686.000000, -584.000000) translate(654.000000, 552.000000) translate(20.000000, 20.000000) translate(12.500000, 12.500000) translate(3.503788, 0.000000)"/>
                        </g>
                        <path fill="#00D3FF" d="M5.802 20.024c-.472 0-.854-.383-.854-.854V5.773c0-.471.382-.853.854-.853h13.396c.472 0 .854.382.854.853V19.17c0 .471-.382.854-.854.854H5.802z" transform="translate(-686.000000, -584.000000) translate(654.000000, 552.000000) translate(20.000000, 20.000000) translate(12.500000, 12.500000)"/>
                        <path fill="#042548" d="M17.463 9.416H12.73c-.499 0-.903-.405-.903-.904 0-.5.404-.904.903-.904h4.733c.5 0 .904.405.904.904 0 .5-.405.904-.904.904zM15.732 12.056h-4.733c-.499 0-.904-.405-.904-.904 0-.5.405-.904.904-.904h4.733c.5 0 .904.405.904.904s-.405.904-.904.904zM14 14.695H9.269c-.5 0-.904-.404-.904-.904 0-.499.405-.903.904-.903h4.733c.499 0 .903.404.903.903 0 .5-.404.904-.903.904zM12.27 17.335H7.537c-.5 0-.904-.405-.904-.904 0-.5.405-.904.904-.904h4.733c.499 0 .903.405.903.904 0 .5-.404.904-.903.904z" transform="translate(-686.000000, -584.000000) translate(654.000000, 552.000000) translate(20.000000, 20.000000) translate(12.500000, 12.500000)"/>
                    </g>
                </g>
            </g>
        </g>
    </g>
</svg>
